<svg xmlns="http://www.w3.org/2000/svg" xmlns:xlink="http://www.w3.org/1999/xlink" width="200" height="200" viewBox="0 0 200 200">
  <defs>
    <linearGradient id="linear-gradient" x1="0.5" x2="0.5" y2="1" gradientUnits="objectBoundingBox">
      <stop offset="0" stop-color="#cabbff"/>
      <stop offset="1" stop-color="#1856ff"/>
    </linearGradient>
    <linearGradient id="linear-gradient-2" x1="0.5" x2="0.755" y2="0.792" gradientUnits="objectBoundingBox">
      <stop offset="0" stop-color="#8f50b3"/>
      <stop offset="0.461" stop-color="#3939bf"/>
      <stop offset="0.645" stop-color="#6232c9"/>
      <stop offset="1" stop-color="#ff18f0"/>
    </linearGradient>
    <linearGradient id="linear-gradient-3" x1="0.208" y1="0.803" x2="0.594" y2="0.409" gradientUnits="objectBoundingBox">
      <stop offset="0" stop-color="#ff00e5"/>
      <stop offset="0.537" stop-color="#ff00e5" stop-opacity="0.345"/>
      <stop offset="0.764" stop-color="#ff00e5" stop-opacity="0.137"/>
      <stop offset="1" stop-color="#ff00e5" stop-opacity="0"/>
    </linearGradient>
  </defs>
  <g id="Group_5782" data-name="Group 5782" transform="translate(-15117 -962)">
    <rect id="Rectangle_8361" data-name="Rectangle 8361" width="200" height="200" transform="translate(15117 962)" fill="#fff" opacity="0"/>
    <g id="Group_5781" data-name="Group 5781" transform="translate(15138.535 934)">
      <g id="Group_321" data-name="Group 321" transform="translate(-11 28)">
        <g id="Group_142" data-name="Group 142" transform="translate(0 0)">
          <path id="Union_12" data-name="Union 12" d="M117.007,200a29.52,29.52,0,0,0-3.88-24.231,89.478,89.478,0,1,1,65.8-86.3c0,.208,0,.418,0,.626,0,.258,0,.5,0,.737a126.581,126.581,0,0,1-23.9,74.228A127.825,127.825,0,0,1,117.009,200h0Z" fill="url(#linear-gradient)"/>
          <path id="Union_13" data-name="Union 13" d="M117.007,200a29.52,29.52,0,0,0-3.88-24.231,89.478,89.478,0,1,1,65.8-86.3c0,.208,0,.418,0,.626,0,.258,0,.5,0,.737a126.581,126.581,0,0,1-23.9,74.228A127.825,127.825,0,0,1,117.009,200h0Z" opacity="0.28" fill="url(#linear-gradient-2)"/>
          <path id="Union_31" data-name="Union 31" d="M117.007,200a29.52,29.52,0,0,0-3.88-24.231,89.478,89.478,0,1,1,65.8-86.3c0,.208,0,.418,0,.626,0,.258,0,.5,0,.737a126.581,126.581,0,0,1-23.9,74.228A127.825,127.825,0,0,1,117.009,200h0Z" opacity="0.68" fill="url(#linear-gradient-3)"/>
          <g id="Group_139" data-name="Group 139" transform="translate(50.863 59.038)">
            <path id="Path_215" data-name="Path 215" d="M59.946,54.5V22.707a5.45,5.45,0,0,1,10.9,0V54.5a5.45,5.45,0,0,1-10.9,0Zm-26.34,0V35.422H10.9V54.5A5.45,5.45,0,0,1,0,54.5V5.45a5.45,5.45,0,1,1,10.9,0V24.523H33.606V5.45a5.45,5.45,0,1,1,10.9,0V54.5a5.45,5.45,0,0,1-10.9,0ZM59.946,5.45A5.45,5.45,0,1,1,65.4,10.9,5.45,5.45,0,0,1,59.946,5.45Z" transform="translate(0.908 0.908)" fill="#5529a3"/>
            <path id="Path_214" data-name="Path 214" d="M59.946,54.5V22.707a5.45,5.45,0,0,1,10.9,0V54.5a5.45,5.45,0,0,1-10.9,0Zm-26.34,0V35.422H10.9V54.5A5.45,5.45,0,0,1,0,54.5V5.45a5.45,5.45,0,1,1,10.9,0V24.523H33.606V5.45A5.45,5.45,0,0,1,39.056,0a5.659,5.659,0,0,1,3,.9A5.327,5.327,0,0,1,44.505,5.45V54.5a5.45,5.45,0,0,1-10.9,0ZM59.946,5.45A5.45,5.45,0,1,1,65.4,10.9,5.45,5.45,0,0,1,59.946,5.45Z" transform="translate(1.817 1.817)" fill="#53289f"/>
            <path id="Path_213" data-name="Path 213" d="M59.946,54.5V22.707a5.45,5.45,0,0,1,10.9,0V54.5a5.45,5.45,0,0,1-10.9,0Zm-26.34,0V35.422H10.9V54.5A5.45,5.45,0,0,1,0,54.5V5.45a5.45,5.45,0,1,1,10.9,0V24.523H33.606V5.45a5.45,5.45,0,1,1,10.9,0V54.5a5.45,5.45,0,0,1-10.9,0ZM59.946,5.45A5.45,5.45,0,1,1,65.4,10.9,5.45,5.45,0,0,1,59.946,5.45Z" transform="translate(0)" fill="#fff"/>
          </g>
        </g>
      </g>
    </g>
  </g>
</svg>
