<svg xmlns="http://www.w3.org/2000/svg" xmlns:xlink="http://www.w3.org/1999/xlink" width="200.002" height="200" viewBox="0 0 200.002 200">
  <defs>
    <filter id="Path_11276" x="117.491" y="110.284" width="62.279" height="88.768" filterUnits="userSpaceOnUse">
      <feOffset dy="3" input="SourceAlpha"/>
      <feGaussianBlur stdDeviation="3" result="blur"/>
      <feFlood flood-opacity="0.161"/>
      <feComposite operator="in" in2="blur"/>
      <feComposite in="SourceGraphic"/>
    </filter>
  </defs>
  <g id="Group_5779" data-name="Group 5779" transform="translate(-13926 -2406)">
    <path id="Path_11277" data-name="Path 11277" d="M34.395,0H165.6A34.4,34.4,0,0,1,200,34.395V165.6A34.4,34.4,0,0,1,165.6,200H34.395A34.4,34.4,0,0,1,0,165.6V34.395A34.4,34.4,0,0,1,34.395,0Z" transform="translate(13926 2406)" fill="#03a8f5"/>
    <path id="Path_11278" data-name="Path 11278" d="M-14031.645-1091.739a103.048,103.048,0,0,1-43.357-84.078A103.184,103.184,0,0,1-13971.816-1279a102.878,102.878,0,0,1,73.887,31.159v121.7a34.4,34.4,0,0,1-34.395,34.4Z" transform="translate(28023.932 3697.739)" fill="#fff" opacity="0.37"/>
    <path id="Path_11279" data-name="Path 11279" d="M-14024-1179.593a48.408,48.408,0,0,1,48.4-48.409,48.412,48.412,0,0,1,48.408,48.409,48.412,48.412,0,0,1-48.408,48.409A48.408,48.408,0,0,1-14024-1179.593Z" transform="translate(28027.707 3701.515)" fill="#fff" opacity="0.37"/>
    <g transform="matrix(1, 0, 0, 1, 13926, 2406)" filter="url(#Path_11276)">
      <path id="Path_11276-2" data-name="Path 11276" d="M14324.705,2051.486v66.023l16.8-16.209,10.871,20.954,8.9-4.745-13.047-20.36h20.756Z" transform="translate(-14198.21 -1935.2)" fill="#fff"/>
    </g>
  </g>
</svg>
