<svg xmlns="http://www.w3.org/2000/svg" xmlns:xlink="http://www.w3.org/1999/xlink" width="500" height="500" viewBox="0 0 500 500">
  <defs>
    <linearGradient id="linear-gradient" x1="0.5" x2="0.5" y2="1" gradientUnits="objectBoundingBox">
      <stop offset="0" stop-color="#007b55"/>
      <stop offset="1" stop-color="#00ab55"/>
    </linearGradient>
    <filter id="Path_33" x="68.03" y="91.648" width="272.502" height="272.502" filterUnits="userSpaceOnUse">
      <feOffset input="SourceAlpha"/>
      <feGaussianBlur stdDeviation="20" result="blur"/>
      <feFlood flood-opacity="0.161"/>
      <feComposite operator="in" in2="blur"/>
      <feComposite in="SourceGraphic"/>
    </filter>
  </defs>
  <g id="Group_1" data-name="Group 1" transform="translate(-8368 -2826)">
    <rect id="Rectangle_31" data-name="Rectangle 31" width="500" height="500" transform="translate(8368 2826)" fill="none"/>
    <g id="Group_18" data-name="Group 18" transform="translate(-15204 -10346)">
      <rect id="Rectangle_177" data-name="Rectangle 177" width="500" height="500" transform="translate(23572 13172)" fill="none"/>
      <g id="Group_17" data-name="Group 17" transform="translate(23615 13191)">
        <path id="Path_32" data-name="Path 32" d="M-5128.232,3532.111c-4.385,0-8.827-.141-13.2-.422-4.4-.281-8.848-.71-13.216-1.273-4.4-.566-8.829-1.285-13.18-2.136-4.382-.857-8.79-1.87-13.1-3.01-4.348-1.148-8.715-2.458-12.983-3.893-4.3-1.447-8.618-3.057-12.823-4.787-4.243-1.746-8.49-3.664-12.625-5.694-4.169-2.052-8.335-4.274-12.384-6.611a211.035,211.035,0,0,1-17.831-11.532,208.157,208.157,0,0,1-16.267-13.021c-5.1-4.526-10.037-9.36-14.661-14.367-4.573-4.951-8.952-10.189-13.018-15.57-4.028-5.331-7.842-10.927-11.336-16.631-3.468-5.667-6.706-11.569-9.617-17.55-2.9-5.95-5.541-12.115-7.859-18.326-2.311-6.193-4.352-12.572-6.063-18.96s-3.135-12.931-4.229-19.451-1.891-13.2-2.357-19.8c-.469-6.634-.621-13.365-.448-20.007.175-6.688.68-13.44,1.5-20.071.831-6.692,2-13.418,3.489-19.993,1.5-6.646,3.356-13.3,5.513-19.772a208.306,208.306,0,0,1,7.576-19.409,210.963,210.963,0,0,1,9.677-18.9c2.379-4.119,4.923-8.2,7.564-12.132,2.611-3.888,5.388-7.734,8.255-11.43,2.833-3.659,5.831-7.266,8.9-10.722,3.043-3.424,6.242-6.79,9.507-10a206.384,206.384,0,0,1,43.216-32.55,208.314,208.314,0,0,1,49.454-20.068,208.549,208.549,0,0,1,27.327-5.266v-22.834a25.419,25.419,0,0,1,25.418-25.419,25.42,25.42,0,0,1,25.421,25.42v46.7a25.42,25.42,0,0,1-25.421,25.42h-.13c-86.277.068-156.468,70.318-156.468,156.6,0,86.349,70.25,156.6,156.6,156.6s156.6-70.25,156.6-156.6a156.453,156.453,0,0,0-5.649-41.747,155.825,155.825,0,0,0-15.932-37.516,157.9,157.9,0,0,0-56.62-56.26l.017-.028-.115-.065a25.42,25.42,0,0,1-9.305-34.724,25.419,25.419,0,0,1,34.724-9.3c.039.021.077.044.114.066h0a210.909,210.909,0,0,1,17.718,11.467,208.1,208.1,0,0,1,16.267,13.021c5.106,4.528,10.039,9.362,14.66,14.367,4.573,4.952,8.954,10.19,13.018,15.57,4.027,5.331,7.842,10.926,11.336,16.631,3.468,5.664,6.706,11.569,9.617,17.55,2.9,5.954,5.543,12.12,7.859,18.327,2.31,6.19,4.35,12.569,6.063,18.96s3.135,12.933,4.229,19.452c1.1,6.537,1.89,13.2,2.357,19.8.469,6.636.62,13.366.447,20.007-.173,6.688-.679,13.441-1.5,20.072-.83,6.692-2,13.42-3.488,19.993-1.5,6.648-3.356,13.3-5.514,19.772a208.3,208.3,0,0,1-7.575,19.409,211.033,211.033,0,0,1-9.678,18.9c-2.379,4.118-4.923,8.2-7.564,12.131-2.615,3.893-5.392,7.74-8.255,11.431-2.838,3.664-5.833,7.269-8.9,10.721-3.046,3.425-6.243,6.79-9.507,10a206.371,206.371,0,0,1-43.217,32.545,208.365,208.365,0,0,1-49.455,20.069,208.334,208.334,0,0,1-52.94,6.855Z" transform="translate(5335.501 -3070.499)" fill="#f86e51"/>
        <g transform="matrix(1, 0, 0, 1, -43, -19)" filter="url(#Path_33)">
          <path id="Path_33-2" data-name="Path 33" d="M539.077,683.524A117.913,117.913,0,0,1,683.524,539.077,117.941,117.941,0,0,1,539.077,683.524Z" transform="translate(-407.01 -383.4)" fill="url(#linear-gradient)"/>
        </g>
      </g>
    </g>
  </g>
</svg>
