<svg xmlns="http://www.w3.org/2000/svg" width="200" height="200" viewBox="0 0 200 200">
  <g id="Group_5759" data-name="Group 5759" transform="translate(951 -11070)">
    <rect id="Rectangle_8352" data-name="Rectangle 8352" width="200" height="200" transform="translate(-951 11070)" fill="#fff"/>
    <path id="Union_84" data-name="Union 84" d="M51.684,13.975c-9.637.29-19.286-.086-28.9.536-3.63.025-7.252.08-10.881.142.018,3.654-.068,7.32.055,10.974,8.133-.08,16.273.086,24.393-.333,8.3.006,16.6-.191,24.9-.358.333-3.87,1.892-7.837,5.188-10.111,4.141-3.081,9.939-4.461,14.806-2.36a14.127,14.127,0,0,1,8.491,12.059c8.652.049,17.306-.023,25.961-.095,7.536-.063,15.071-.126,22.606-.109a36.151,36.151,0,0,0,.24-5.662c.006-1.713.382-3.469-.179-5.139-8.435.441-16.885.414-25.334.387-4.66-.016-9.321-.03-13.977.033C96.923,8.694,92.326,4.929,87.206,2.8A38.808,38.808,0,0,0,73.9,0,30.459,30.459,0,0,0,51.684,13.975Zm63.57,14.776c-13.561-2.508-28.091-.548-40.124,6.34-10.986-6.482-24.419-7.727-36.773-5.268a49.067,49.067,0,0,1-24.98-1.775c-1.7,6.427,1.485,12.878,4.406,18.454,2.477,5.237,8.041,7.677,12.256,11.245-3.155,1.965-5.577,4.812-8.14,7.455C17.326,70.3,12.983,75.6,8.633,80.89,6.39,83.8,2.711,84.871,0,87.23v.82C6.759,91,13.285,94.859,20.672,96.1a44.275,44.275,0,0,0,20.986-1.676c-2.458,9.994.616,20.186,1.109,30.217-.191,3.26-.758,6.5-.616,9.778a57.672,57.672,0,0,0,13.549-4.1c8.355-3.746,16.68-9.15,20.876-17.585,1.719,1.417,2.612,3.531,4.147,5.115,5.071,5.539,11.719,9.4,18.633,12.181a42.115,42.115,0,0,0,11.91,3.112c-.992-4.418-.7-8.984-.678-13.476.9-8.743,3.186-17.677.992-26.421a42.21,42.21,0,0,0,15.065,2.341c9.39-.234,18.146-4.319,26.162-8.879v-.764c-2.292-2.187-5.558-3.019-7.69-5.385-6.957-8.263-13.648-16.827-21.646-24.117-.037-.179-.1-.536-.136-.715,5.4-3.321,10.05-8.109,12.373-14.086,1.892-4.942,3.155-10.284,2.668-15.607A39.1,39.1,0,0,1,115.253,28.751ZM96.479,61.894c-2.711-6.834-5.89-13.649-11.085-18.984a34.353,34.353,0,0,1,8.368-2.791c9.988-1.781,20.229-.776,30.174.764-1.547,3.247-4.677,5.4-7.72,7.123-6.365,3.186-13.63,4.116-20.666,4.3a44.635,44.635,0,0,0,4.177,8.99c2.3.333,4.689.16,6.945.856,7.985,1.917,14.819,7.154,19.822,13.543a69.686,69.686,0,0,0,5.977,7.9c-11.978,2.729-25.115-2.188-32.762-11.713q-3,5.333-5.736,10.832c.492,1.651,1.99,2.816,2.643,4.43,4.48,9.323,4.843,20.1,2.988,30.136-2.723-.745-4.843-2.791-6.864-4.658-6.463-6.55-9.279-15.718-10.444-24.634a34.344,34.344,0,0,0-6.078.313,37.651,37.651,0,0,1-5.536.34,49.473,49.473,0,0,1-3.9,15.312c-2.717,6.051-7.055,11.732-13.167,14.622a57.283,57.283,0,0,1-.82-17.284c.782-5.811,2.274-11.787,5.928-16.5.53-.653.148-1.516-.179-2.163-1.67-3.247-3.438-6.451-5.121-9.692A34.059,34.059,0,0,1,20.863,84.889c.9-1.8,2.422-3.173,3.5-4.861a50.332,50.332,0,0,1,7.708-9.563c5.4-5.1,12.644-8.509,20.179-8.213,1.245-3.081,2.964-6.014,3.7-9.273a40.525,40.525,0,0,1-10.388-.9c-6.384-1.269-13.081-4.24-16.526-10.05a104.555,104.555,0,0,1,21.523-1.62,38.73,38.73,0,0,1,15.355,2.816c-5.1,5.508-9.064,12.268-10.087,19.8,3.524.974,6.9,2.594,10.549,3.038,1.651-5.953,4.43-12.009,9.44-15.866,5.274,3.463,7.252,9.933,8.873,15.694C88.592,64.482,92.579,63.323,96.479,61.894Z" transform="translate(-774.595 11237.208) rotate(180)" fill="#0091dc"/>
  </g>
</svg>
