<svg xmlns="http://www.w3.org/2000/svg" width="57.439" height="56.034" viewBox="0 0 57.439 56.034">
  <g id="Group_5757" data-name="Group 5757" transform="translate(-1404 -740.055)">
    <g id="github-logo_1_" data-name="github-logo (1)" transform="translate(1404 740.055)">
      <path id="Path_8910" data-name="Path 8910" d="M53.587,16.359A28.6,28.6,0,0,0,43.135,5.907,28.091,28.091,0,0,0,28.719,2.055,28.094,28.094,0,0,0,14.3,5.907,28.591,28.591,0,0,0,3.852,16.359,28.093,28.093,0,0,0,0,30.774,27.911,27.911,0,0,0,5.478,47.658,28.128,28.128,0,0,0,19.632,58.035a1.674,1.674,0,0,0,1.5-.261,1.462,1.462,0,0,0,.486-1.121q0-.112-.019-2.019T21.576,51.3l-.86.149a10.971,10.971,0,0,1-2.075.131,15.813,15.813,0,0,1-2.6-.262A5.807,5.807,0,0,1,13.536,50.2a4.745,4.745,0,0,1-1.645-2.3l-.374-.861a9.344,9.344,0,0,0-1.178-1.907,4.513,4.513,0,0,0-1.627-1.421l-.262-.187a2.745,2.745,0,0,1-.486-.449,2.051,2.051,0,0,1-.336-.524q-.112-.262.187-.431A2.425,2.425,0,0,1,8.9,41.956l.748.112a5.459,5.459,0,0,1,1.851.9,6.035,6.035,0,0,1,1.814,1.944,6.592,6.592,0,0,0,2.075,2.338,4.4,4.4,0,0,0,2.449.8,10.634,10.634,0,0,0,2.132-.186,7.437,7.437,0,0,0,1.683-.561,6.059,6.059,0,0,1,1.832-3.852,25.605,25.605,0,0,1-3.833-.673,15.262,15.262,0,0,1-3.515-1.459,10.067,10.067,0,0,1-3.011-2.505,12.04,12.04,0,0,1-1.963-3.927,18.672,18.672,0,0,1-.766-5.609,10.907,10.907,0,0,1,2.954-7.7,10.053,10.053,0,0,1,.262-7.628,5.24,5.24,0,0,1,3.216.5,22.484,22.484,0,0,1,3.122,1.44q.991.6,1.589,1.01a27.007,27.007,0,0,1,14.36,0l1.421-.9a20.125,20.125,0,0,1,3.44-1.646,4.9,4.9,0,0,1,3.03-.411,9.956,9.956,0,0,1,.3,7.628,10.909,10.909,0,0,1,2.955,7.7,18.881,18.881,0,0,1-.767,5.628A11.573,11.573,0,0,1,44.3,38.832a10.454,10.454,0,0,1-3.03,2.487,15.29,15.29,0,0,1-3.515,1.459,25.579,25.579,0,0,1-3.833.674q1.944,1.682,1.944,5.31v7.89a1.49,1.49,0,0,0,.468,1.121,1.624,1.624,0,0,0,1.477.261A28.124,28.124,0,0,0,51.961,47.657a27.916,27.916,0,0,0,5.478-16.884A28.116,28.116,0,0,0,53.587,16.359Z" transform="translate(0 -2.055)" fill="#b3bfc2"/>
    </g>
    <g id="github-logo_1_2" data-name="github-logo (1)" transform="translate(1404 740.055)">
      <path id="Path_8911" data-name="Path 8911" d="M53.587,16.359A28.6,28.6,0,0,0,43.135,5.907,28.091,28.091,0,0,0,28.719,2.055,28.094,28.094,0,0,0,14.3,5.907,28.591,28.591,0,0,0,3.852,16.359,28.093,28.093,0,0,0,0,30.774,27.911,27.911,0,0,0,5.478,47.658,28.128,28.128,0,0,0,19.632,58.035a1.674,1.674,0,0,0,1.5-.261,1.462,1.462,0,0,0,.486-1.121q0-.112-.019-2.019T21.576,51.3l-.86.149a10.971,10.971,0,0,1-2.075.131,15.813,15.813,0,0,1-2.6-.262A5.807,5.807,0,0,1,13.536,50.2a4.745,4.745,0,0,1-1.645-2.3l-.374-.861a9.344,9.344,0,0,0-1.178-1.907,4.513,4.513,0,0,0-1.627-1.421l-.262-.187a2.745,2.745,0,0,1-.486-.449,2.051,2.051,0,0,1-.336-.524q-.112-.262.187-.431A2.425,2.425,0,0,1,8.9,41.956l.748.112a5.459,5.459,0,0,1,1.851.9,6.035,6.035,0,0,1,1.814,1.944,6.592,6.592,0,0,0,2.075,2.338,4.4,4.4,0,0,0,2.449.8,10.634,10.634,0,0,0,2.132-.186,7.437,7.437,0,0,0,1.683-.561,6.059,6.059,0,0,1,1.832-3.852,25.605,25.605,0,0,1-3.833-.673,15.262,15.262,0,0,1-3.515-1.459,10.067,10.067,0,0,1-3.011-2.505,12.04,12.04,0,0,1-1.963-3.927,18.672,18.672,0,0,1-.766-5.609,10.907,10.907,0,0,1,2.954-7.7,10.053,10.053,0,0,1,.262-7.628,5.24,5.24,0,0,1,3.216.5,22.484,22.484,0,0,1,3.122,1.44q.991.6,1.589,1.01a27.007,27.007,0,0,1,14.36,0l1.421-.9a20.125,20.125,0,0,1,3.44-1.646,4.9,4.9,0,0,1,3.03-.411,9.956,9.956,0,0,1,.3,7.628,10.909,10.909,0,0,1,2.955,7.7,18.881,18.881,0,0,1-.767,5.628A11.573,11.573,0,0,1,44.3,38.832a10.454,10.454,0,0,1-3.03,2.487,15.29,15.29,0,0,1-3.515,1.459,25.579,25.579,0,0,1-3.833.674q1.944,1.682,1.944,5.31v7.89a1.49,1.49,0,0,0,.468,1.121,1.624,1.624,0,0,0,1.477.261A28.124,28.124,0,0,0,51.961,47.657a27.916,27.916,0,0,0,5.478-16.884A28.116,28.116,0,0,0,53.587,16.359Z" transform="translate(0 -2.055)" fill="#b3bfc2"/>
    </g>
  </g>
</svg>
