<svg xmlns="http://www.w3.org/2000/svg" xmlns:xlink="http://www.w3.org/1999/xlink" width="57.244" height="57.244" viewBox="0 0 57.244 57.244">
  <defs>
    <clipPath id="clip-path">
      <rect width="57.244" height="57.244" fill="none"/>
    </clipPath>
  </defs>
  <g id="Component_30_13" data-name="Component 30 – 13" clip-path="url(#clip-path)">
    <g id="Instagram" transform="translate(0)" clip-path="url(#clip-path)">
      <path id="Path_3" data-name="Path 3" d="M28.622,5.088c7.632,0,8.587,0,11.449.318a14.75,14.75,0,0,1,5.406.954,11.169,11.169,0,0,1,5.406,5.406,14.75,14.75,0,0,1,.954,5.406c0,2.862.318,3.816.318,11.449s0,8.587-.318,11.449a14.75,14.75,0,0,1-.954,5.406,11.169,11.169,0,0,1-5.406,5.406,14.75,14.75,0,0,1-5.406.954c-2.862,0-3.816.318-11.449.318s-8.587,0-11.449-.318a14.75,14.75,0,0,1-5.406-.954A11.169,11.169,0,0,1,6.36,45.477a14.75,14.75,0,0,1-.954-5.406c0-2.862-.318-3.816-.318-11.449s0-8.587.318-11.449a14.75,14.75,0,0,1,.954-5.406,11.422,11.422,0,0,1,2.226-3.18,5.377,5.377,0,0,1,3.18-2.226,14.75,14.75,0,0,1,5.406-.954c2.862-.318,3.816-.318,11.449-.318m0-5.088c-7.632,0-8.9,0-11.767.318a19.633,19.633,0,0,0-7,1.272A12.45,12.45,0,0,0,4.77,4.77,12.45,12.45,0,0,0,1.59,9.859c-.954,1.908-1.272,3.816-1.272,7C0,19.717,0,20.989,0,28.622s0,8.9.318,11.767a19.633,19.633,0,0,0,1.272,7,12.45,12.45,0,0,0,3.18,5.088,12.45,12.45,0,0,0,5.088,3.18,19.633,19.633,0,0,0,7,1.272c2.862.318,4.134.318,11.767.318s8.9,0,11.767-.318a19.633,19.633,0,0,0,7-1.272,13.343,13.343,0,0,0,8.269-8.269,19.633,19.633,0,0,0,1.272-7c0-3.18.318-4.134.318-11.767s0-8.9-.318-11.767a19.633,19.633,0,0,0-1.272-7,12.45,12.45,0,0,0-3.18-5.088,12.45,12.45,0,0,0-5.088-3.18,19.633,19.633,0,0,0-7-1.272C37.526,0,36.254,0,28.622,0m0,13.993A14.393,14.393,0,0,0,13.993,28.622,14.629,14.629,0,1,0,28.622,13.993m0,24.17a9.37,9.37,0,0,1-9.541-9.541,9.37,9.37,0,0,1,9.541-9.541,9.37,9.37,0,0,1,9.541,9.541,9.37,9.37,0,0,1-9.541,9.541m15.265-28.3a3.5,3.5,0,1,0,3.5,3.5,3.529,3.529,0,0,0-3.5-3.5" fill="#b3bfc2" fill-rule="evenodd"/>
    </g>
  </g>
</svg>
