<svg id="linked-in-square-button" xmlns="http://www.w3.org/2000/svg" width="57.479" height="57.479" viewBox="0 0 57.479 57.479">
  <path id="LinkedIn__x28_alt_x29__3_" d="M53.226,0H4.258A4.2,4.2,0,0,0,0,4.122V53.369a4.19,4.19,0,0,0,4.258,4.11H53.224a4.186,4.186,0,0,0,4.256-4.11V4.122A4.191,4.191,0,0,0,53.226,0Zm-35.8,48.112H8.749V22.168h8.682V48.112ZM13.084,18.628h-.057a4.491,4.491,0,0,1-4.8-4.488c0-2.551,1.942-4.488,4.912-4.488a4.5,4.5,0,0,1,4.855,4.488C18,16.621,16.113,18.628,13.084,18.628ZM48.731,48.112H40.066V34.236c0-3.487-1.274-5.884-4.416-5.884a4.711,4.711,0,0,0-4.443,3.18,5.74,5.74,0,0,0-.287,2.091V48.112H22.233s.11-23.516,0-25.945h8.687v3.679a8.6,8.6,0,0,1,7.815-4.292c5.719,0,10,3.71,10,11.68ZM30.866,25.93a.161.161,0,0,1,.05-.081v.081Z" transform="translate(0)" fill="#b3bfc2"/>
</svg>
